# xmcd
#
# Track frame offsets: 
#        150
#        12915
#        25198
#        36074
#        52920
#        64536
#        76504
#        87982
#        102641
#        116919
#        130843
#        145304
#        160146
#        175823
#        192205
#        205729
#
# Disc length: 2843 seconds
#
# Revision: 0
# Processed by: cddbd v1.5.2PL0 Copyright (c) Steve Scherf et al.
# Submitted via: ExactAudioCopyFreeDBPlugin 1.0
#
DISCID=cc0b1910
DTITLE=Strictly Bluegrass - Lonesome Night
DYEAR=2010
DGENRE=Bluegrass
TTITLE0=Every Humble Knee Must Bow
TTITLE1=Salt Creek
TTITLE2=God Moves In A Windstorm
TTITLE3=Man Gave Names To All The Animals
TTITLE4=Panhandle Rag
TTITLE5=Ocean Of Diamonds
TTITLE6=It's Mighty Dark For Me To Travel
TTITLE7=Last Letter Home
TTITLE8=Nellie Kane
TTITLE9=A Walk In The Irish Rain
TTITLE10=Lonesome Night
TTITLE11=Clinch Mountain Backstep
TTITLE12=Walls Of Time
TTITLE13=Drifting Too Far From The Shore
TTITLE14=Gospel Plough
TTITLE15=Down To The River To Pray
EXTD=
EXTT0=
EXTT1=
EXTT2=
EXTT3=
EXTT4=
EXTT5=
EXTT6=
EXTT7=
EXTT8=
EXTT9=
EXTT10=
EXTT11=
EXTT12=
EXTT13=
EXTT14=
EXTT15=
PLAYORDER=
